<svg version="1.2" xmlns="http://www.w3.org/2000/svg" viewBox="0 0 1579 1587" width="1579" height="1587">
<style>.s0 { fill: #074578 }</style>
<path class="s0" d="M783.8 1c17.4 -3.2 36.2 1.4 49.7 13 18.3 14.9 25.9 41.2 18.8 63.6 -5.3 18.1 -20 33.1 -37.7 39.2 -21.5 7.9 -46.9 1.5 -62.8 -14.7 -15.6 -15.9 -21.3 -40.8 -13.7 -61.8 6.7 -20.1 25 -35.6 45.7 -39.3zM919 11.6c21.3 -4.1 44.7 3.7 58.6 20.5 19.3 21.4 19.8 56.7 1.6 78.9 -12.7 16.3 -34.2 25.2 -54.8 22.9 -15.9 -1.4 -31 -9.6 -41.2 -21.9 -13.9 -16.2 -17.9 -40.2 -10.7 -60.2 6.9 -20.4 25.4 -36.3 46.5 -40.2zM646.6 15.5c29.9 -7.6 62.8 13.4 69 43.5 7.1 27.6 -9.3 58.7 -36.2 68.1 -20.9 7.9 -46.3 2.8 -61.8 -13.5 -14.1 -13.6 -19.8 -34.7 -15.7 -53.7 4.5 -21.9 22.8 -40.2 44.7 -44.4zM1049.9 50.8c18.2 -3.8 38.1 0.5 52.6 12.3 22.3 16.6 30.2 48.8 19.5 74.3 -7 16.8 -21.4 30.4 -38.7 36.1 -21.9 7.4 -47.6 1.6 -64.2 -14.4 -19.6 -18.4 -25.1 -49.5 -13.3 -73.7 8.3 -17.4 25.1 -30.7 44.1 -34.6zM515.6 54.8c28.2 -8 60.5 9.6 68.4 38 8.9 26.3 -5.4 57.4 -30.7 68.4 -16.7 7.4 -37.1 6.4 -52.7 -3.3 -18.9 -11.1 -29.7 -34.1 -26.6 -55.8 2.5 -22.4 19.9 -41.8 41.6 -47.3zM1178.9 113.6c20.1 -2.6 41.3 5 54.8 20.1 18.7 19.9 21.9 52.1 7.8 75.4 -13.5 23.4 -42.9 36.1 -69.2 29.5 -28.8 -6.1 -50.8 -34.4 -49.1 -63.8 0 -30.5 25.4 -58.3 55.7 -61.2zM392.9 115.2c24 -7.5 51.8 4.2 63.5 26.4 10.1 18.5 8.4 42.8 -4.6 59.4 -11.9 16.3 -33.2 24.4 -53 20.8 -25.9 -4 -46.7 -28.9 -45.3 -55.3 0 -23.4 16.9 -45.2 39.4 -51.3zM293.3 194.8c20.9 -3.3 42.8 7.6 53.1 26 13.6 22.1 7 53.8 -14 68.9 -13.6 10.6 -32.4 13.4 -48.6 8 -20.5 -6.5 -35.6 -26.6 -36.2 -48 -2 -26.5 19.4 -51.9 45.7 -54.9zM1291.3 195c18.8 -2.9 38.7 2.7 53.1 15.2 14.8 12.7 23.2 32.5 22.3 52 -0.6 19.4 -10.5 38.6 -26.2 50 -21.4 16.2 -53 17.2 -75.1 2 -15.8 -10.1 -26.4 -27.6 -28.8 -46.1 -2.3 -19 3.7 -39.1 17.1 -53.1 9.7 -10.7 23.3 -17.5 37.6 -20zM199.5 294.1c25.5 -5.2 52.8 11.4 59.9 36.4 5.4 17.6 1.3 38.1 -11.5 51.5 -10.7 11.9 -27 18.6 -42.9 17.1 -15.2 -0.7 -29.7 -9 -38.7 -21.2 -10.5 -13.4 -13.2 -32.1 -7.9 -48.2 5.4 -18.4 22.3 -32.5 41.1 -35.6zM1411.7 366.8c11.1 -2.5 22 8.7 19.4 19.8 -1.9 12.2 -18.3 18.1 -27.4 9.7 -10.9 -8.3 -5.8 -27.9 8 -29.5zM120.7 411.2c14.2 -3.4 29.9 -0.7 41.8 8 16.9 11.7 25.1 34 20.2 53.9 -5.5 24.1 -30.1 41.9 -54.7 38.9 -25.2 -1.6 -46.6 -24.8 -46.4 -50.1 -0.7 -23.2 16.2 -45.8 39.1 -50.7zM1461.6 450.1c14.4 -5 30.3 8.8 27.7 23.8 -1.5 16.3 -23.5 24.8 -35.6 13.9 -13.2 -10.2 -8.6 -33.8 7.9 -37.7zM77.1 533.9c14.7 -1.8 30.3 2.6 40.9 13.1 12.8 11.2 18.7 29.3 16 45.9 -2 14.9 -11.7 27.8 -24.1 35.8 -15.9 9.6 -37 9.6 -52.9 0 -19.3 -11.3 -29.3 -36 -23 -57.6 5.1 -19.6 22.9 -35.1 43.1 -37.2zM1513.6 546.3c18.4 -5.2 36.7 15.3 29 33 -5.7 18.4 -34.3 21.6 -43.9 4.9 -9.4 -13.5 -1.3 -34.6 14.9 -37.9zM43.6 668.7c14.1 -2.8 29.6 0.6 40.7 9.8 15.2 11.9 22.1 33.3 16.7 51.9 -5.4 21.7 -27.4 37.8 -49.8 36.3 -18.2 -0.5 -35.3 -12.3 -42.8 -28.9 -5.8 -12.5 -5.9 -27.5 -0.4 -40.2 6.2 -14.7 19.8 -26.1 35.6 -28.9zM1536.4 668.6c14.8 -5.5 32.4 6.5 32.5 22.2 1.3 14.6 -12.5 27.9 -27 26.1 -13.5 -0.9 -24.3 -14.3 -22.3 -27.7 1 -9.4 7.8 -17.8 16.8 -20.6zM1549.1 791.7c12 -2.7 25.1 5.2 28.5 17 4.4 13.4 -4.8 29.9 -19.1 31.6 -13.3 3 -27.4 -7.1 -29 -20.6 -2.4 -12.7 6.8 -26 19.6 -28zM37.6 806.6c11 -2.2 22.8 -0.9 32.8 4.4 18.1 8.9 28.4 30.6 24.7 50.3 -3.2 22 -23.7 39.7 -45.9 39.6 -23.7 1.3 -45.9 -18 -48.4 -41.5 -3.8 -23.7 13.3 -48.1 36.8 -52.8zM1520 916.7c12.5 -5.4 28.5 1.8 32.6 14.8 5.3 13.7 -4.5 30.5 -18.9 32.7 -13.6 2.9 -28.3 -7.9 -29.1 -21.8 -1.5 -10.8 5.3 -21.8 15.4 -25.7zM58.3 941.5c14.7 -4.2 31.4 -0.7 42.8 9.4 13.4 11.4 19.1 30.7 14.1 47.5 -5.6 21.1 -27.8 36.2 -49.5 32.9 -23.1 -1.9 -41.9 -24 -40.5 -47.1 0.1 -19.6 14.5 -37.4 33.1 -42.7zM1490.2 1045.7c17.6 -1.9 32.7 16.5 27.5 33.3 -3.6 17.2 -26 25.5 -40.2 15.5 -12.9 -8.2 -15.9 -27.6 -5.9 -39.2 4.5 -5.6 11.5 -8.9 18.6 -9.6zM101.9 1068.4c12.7 -3.2 26.7 -0.9 37.5 6.6 11.5 8.2 19.7 21.7 19.9 36.1 0.5 12.6 -4.3 25.5 -13.5 34.4 -13.1 13.8 -35.4 17.2 -52.4 8.8 -8.1 -3.8 -14.8 -10.3 -19.7 -17.8 -9.3 -16.3 -8.2 -38.4 4.2 -52.8 6.4 -7.1 14.5 -13.2 24 -15.3zM1424.5 1166.9c15.6 -5.1 33.4 7.1 34 23.5 2.2 18.1 -17.8 33.8 -34.9 27.2 -14.3 -4.4 -21.9 -21.5 -16.1 -35.2 2.8 -7.5 9.4 -13.2 17 -15.5zM168.4 1188.8c19.5 -6.4 42.3 4.1 50.5 22.8 7 14.5 4.7 32.7 -5.7 45 -10 12.5 -27.6 18 -43 14 -10.6 -2.1 -19.3 -9.4 -25.4 -17.9 -8 -12.3 -8.9 -28.8 -2.4 -41.9 5 -10.6 14.8 -18.7 26 -22zM1343.2 1272.8c16.1 -4.7 34.8 6.7 37.2 23.5 4.1 17.8 -11.5 36.6 -29.7 35.7 -16.6 0.6 -31.1 -15.1 -29.9 -31.6 0.3 -12.8 10.1 -24.4 22.4 -27.6zM253.8 1295.3c15.8 -5.7 35 -0.3 45 13.3 13.5 16.1 11.1 42.2 -5 55.7 -17.7 16.7 -50 11.8 -61.7 -9.7 -13.5 -20.9 -2.2 -52.1 21.7 -59.3zM1241.2 1365.7c16.7 -7.1 37.6 4.6 40.4 22.5 3.2 15.2 -7.2 32 -22.7 34.9 -15.3 4 -32.3 -6.2 -35.9 -21.6 -4 -14.3 4.1 -30.8 18.2 -35.8zM359.6 1382.5c18.4 -4.8 38.8 5.1 46.7 22.3 5.6 12.7 4.9 28.4 -3.1 39.9 -7.7 11.8 -21.9 18.8 -36 17.9 -19.7 -0.3 -37.3 -17.5 -38.3 -37.2 -2.1 -19.3 11.9 -38.5 30.7 -42.9zM1133.3 1434.9c18.5 -3.8 38 10.9 39.2 29.9 2.6 20 -16 39 -36 36.8 -18.9 -1 -34.2 -20 -30.6 -38.7 1.6 -14 13.5 -25.9 27.4 -28zM480.3 1449.3c21.5 -4.9 45 12.3 46 34.6 2.8 21.1 -15.2 41.7 -36.3 42.3 -20.7 1.9 -40.6 -15.7 -41.1 -36.4 -1.6 -19 12.6 -37.5 31.4 -40.5zM1006.3 1484.7c20.3 -5.3 42 11.4 42.7 32.2 1.6 18.1 -12.9 35.8 -31 37.4 -18.9 2.9 -37.8 -12.2 -39.4 -31.2 -2.3 -17.4 10.2 -35.4 27.7 -38.4zM609.2 1495.1c19.2 -4.3 40.2 9.3 43.6 28.8 4.9 19.8 -9.8 41.4 -29.9 44.4 -19.1 3.6 -39.3 -10.1 -42.7 -29.3 -4.5 -19.4 9.4 -40.6 29 -43.9zM873.2 1513.5c22.6 -7.7 47.9 13.1 45.1 36.7 -0.8 22.6 -26.4 39.1 -47.3 30.5 -16.2 -5.4 -26.2 -23.6 -22.5 -40.2 2.2 -12.7 12.3 -23.5 24.7 -27zM736.1 1518c19.6 -8.2 44 5.1 47.5 26.1 5.1 20.6 -12.6 42.5 -33.8 42.3 -18.8 1 -36.1 -15.3 -36.2 -34.1 -0.8 -14.8 8.7 -29.3 22.5 -34.3z"/>
</svg>